# xmcd CD database file
#
# Track frame offsets:
#	150
#	10282
#	21563
#	30368
#	43554
#	56688
#	68032
#	78171
#	89518
#	100137
#	111105
#	121052
#	130938
#	148284
#	161850
#	177830
#	190000
#	200686
#	212736
#	227814
#	239394
#	250294
#	266693
#	277842
#
# Disc length: 3927 seconds
#
# Revision: 0
# Processed by: cddbd v1.4PL0 Copyright (c) Steve Scherf et al.
# Submitted via: CDex 1.40Beta6
#
DISCID=550f5518
DTITLE=John Lee Hooker - Boom Boom
DYEAR=1900
DGENRE=Blues
TTITLE0=Dimples
TTITLE1=Boom Boom
TTITLE2=Hobo Blues
TTITLE3=I Want To Hug You
TTITLE4=I'm So Excited
TTITLE5=Hard Headed Woman
TTITLE6=I Wanna Walk
TTITLE7=What Do You Say
TTITLE8=Keep Your Hands To Yourself
TTITLE9=Send Me Your Pillow
TTITLE10=I'm Leaving
TTITLE11=Dusty Road
TTITLE12=Blues Before Sunrise
TTITLE13=I'm Going Upstairs
TTITLE14=Thelma
TTITLE15=I'm In The Mood
TTITLE16=Let's Make It
TTITLE17=Whiskey And Women
TTITLE18=Crawling King Snake
TTITLE19=Little Wheel
TTITLE20=No Shoes
TTITLE21=Process
TTITLE22=Good Rockin' Mama
TTITLE23=When My First Wife Left Me
EXTD=
EXTT0=
EXTT1=
EXTT2=
EXTT3=
EXTT4=
EXTT5=
EXTT6=
EXTT7=
EXTT8=
EXTT9=
EXTT10=
EXTT11=
EXTT12=
EXTT13=
EXTT14=
EXTT15=
EXTT16=
EXTT17=
EXTT18=
EXTT19=
EXTT20=
EXTT21=
EXTT22=
EXTT23=
PLAYORDER=
